<svg width="572" height="640" viewBox="0 0 572 640" fill="none" xmlns="http://www.w3.org/2000/svg">
<path fill-rule="evenodd" clip-rule="evenodd" d="M0.276389 352.783C8.40279 276.588 444.419 129.524 525.364 201.694C606.309 273.865 585.82 425.666 416.189 460.35C246.559 495.034 -7.85001 428.978 0.276389 352.783Z" fill="#DDE3E9" fill-opacity="0.06"/>
<path fill-rule="evenodd" clip-rule="evenodd" d="M465.247 568.612C392.549 592.833 77.831 257.139 109.91 153.546C141.99 49.9526 288.609 5.60951 390.549 145.559C492.489 285.508 537.945 544.392 465.247 568.612Z" fill="#DDE3E9" fill-opacity="0.06"/>
<path d="M382.859 167.451C356.211 162.982 332.633 166.089 310.775 176.945C292.715 185.914 275.521 200.512 258.213 221.57C243.67 239.267 230.406 259.734 217.582 279.529C202.508 302.791 186.922 326.849 169.472 345.913C137.974 380.334 125.303 409.197 131.807 431.699C137.449 451.227 157.276 465.773 190.742 474.926C224.408 484.138 264.22 485.752 291.692 485.485C323.907 485.172 357.643 482.038 381.938 477.1C405.473 472.318 435.577 464.524 459.676 446.542C475.247 434.925 488.188 419.233 498.139 399.903C502.464 391.502 506.154 382.579 509.186 373.194C512.451 363.087 514.955 352.448 516.671 341.349C519.72 321.64 518.21 301.559 512.181 281.673C506.482 262.865 497.036 245.082 484.11 228.822C458.228 196.269 421.325 173.9 382.859 167.451ZM483.308 229.46C496.152 245.618 505.538 263.288 511.198 281.972C517.181 301.711 518.68 321.637 515.655 341.196C512.361 362.488 506.16 382.083 497.228 399.436C487.348 418.625 474.506 434.198 459.062 445.723C446.488 455.104 426.335 467.035 381.735 476.098C357.498 481.023 323.835 484.151 291.681 484.462C264.274 484.729 224.562 483.118 191.01 473.94C157.914 464.885 138.326 450.578 132.788 431.416C130.225 422.545 130.709 412.652 134.222 401.778C139.476 385.515 151.503 367.063 170.228 346.606C187.734 327.477 203.346 303.384 218.443 280.087C231.252 260.316 244.5 239.876 259.007 222.222C276.459 200.983 293.053 186.888 311.232 177.86C332.89 167.105 356.264 164.029 382.691 168.462C420.909 174.867 457.583 197.101 483.308 229.46Z" fill="white" fill-opacity="0.5"/>
<path d="M315.712 189.759C298.731 198.165 282.61 211.853 266.431 231.605C252.908 248.099 240.631 267.177 228.755 285.624C222.682 295.061 216.403 304.814 210.07 314.045C208.212 316.753 206.386 319.363 204.64 321.802C197.197 332.202 190.287 340.844 183.506 348.23C147.641 387.349 137.793 418.6 154.237 441.119C163.096 453.209 179.49 462.623 202.961 469.108C226.476 475.66 257.206 479.144 291.825 479.188C323.997 479.23 357.919 476.254 382.569 471.23C404.604 466.745 432.795 459.442 455.372 442.619C476.439 426.929 492.44 403.106 501.865 373.932C504.896 364.55 507.247 354.607 508.869 344.21C511.716 326.014 510.398 307.47 504.956 289.09C499.801 271.685 491.198 255.168 479.382 239.992C455.032 208.694 420.013 187.178 383.303 180.958C358.305 176.736 336.196 179.614 315.712 189.759ZM478.568 240.623C490.307 255.695 498.852 272.1 503.968 289.381C509.369 307.615 510.674 326.007 507.851 344.053C504.749 363.961 498.926 382.286 490.541 398.513C481.272 416.454 469.231 431.015 454.756 441.795C442.981 450.567 424.113 461.728 382.363 470.223C357.776 475.232 323.931 478.201 291.823 478.161C257.297 478.119 226.664 474.645 203.234 468.12C179.992 461.702 163.784 452.412 155.064 440.514C146.959 429.418 145.417 416.111 150.396 400.7C155.318 385.463 166.622 368.166 184.262 348.922C191.069 341.51 198.005 332.833 205.474 322.398C207.222 319.952 209.053 317.337 210.916 314.623C217.256 305.384 223.542 295.622 229.617 286.179C241.474 267.755 253.735 248.704 267.222 232.255C283.307 212.617 299.317 199.018 316.165 190.677C336.452 180.633 358.353 177.785 383.124 181.97C419.586 188.145 454.374 209.522 478.568 240.623Z" fill="white" fill-opacity="0.5"/>
<path d="M320.644 202.577C304.742 210.421 289.696 223.201 274.643 241.644C262.133 256.945 250.835 274.638 239.908 291.749C234.2 300.686 228.298 309.927 222.327 318.66C220.597 321.194 218.895 323.63 217.271 325.903C210.367 335.57 203.913 343.631 197.542 350.546C180.093 369.532 169.11 386.671 164.884 401.486C161.019 415.048 162.711 427.004 169.913 437.026C178.069 448.286 193.297 457.12 215.179 463.285C243.124 471.157 275.793 472.838 298.281 472.86C328.316 472.89 360.059 470.085 383.193 465.353C403.732 461.168 430.004 454.353 451.058 438.691C470.784 424.029 485.767 401.76 494.572 374.496C497.371 365.831 499.548 356.658 501.054 347.066C503.74 330.089 502.529 312.781 497.452 295.624C492.639 279.359 484.575 263.906 473.489 249.701C450.734 220.476 418.019 200.346 383.728 194.47C360.395 190.499 339.759 193.15 320.644 202.577ZM472.687 250.332C483.693 264.439 491.694 279.775 496.475 295.918C501.51 312.925 502.712 330.083 500.046 346.909C498.55 356.45 496.387 365.567 493.602 374.186C484.862 401.242 470.006 423.34 450.45 437.874C439.475 446.036 421.89 456.424 382.991 464.355C359.92 469.071 328.253 471.872 298.285 471.838C275.861 471.816 243.291 470.142 215.46 462.303C193.806 456.201 178.761 447.498 170.747 436.434C163.738 426.679 162.098 415.017 165.871 401.773C166.067 401.087 166.276 400.397 166.501 399.702C171.083 385.518 181.769 369.23 198.294 351.241C204.692 344.295 211.174 336.204 218.105 326.499C219.734 324.22 221.439 321.775 223.173 319.239C229.152 310.493 235.061 301.244 240.773 292.301C251.686 275.215 262.968 257.548 275.438 242.292C290.397 223.962 305.335 211.273 321.101 203.496C340.015 194.169 360.445 191.544 383.562 195.482C417.603 201.313 450.085 221.307 472.687 250.332Z" fill="white" fill-opacity="0.5"/>
<path d="M325.588 215.393C310.77 222.672 296.796 234.543 282.864 251.68C271.363 265.792 261.036 282.11 251.048 297.891C245.713 306.321 240.196 315.036 234.591 323.268C232.992 325.618 231.414 327.882 229.909 329.997C223.537 338.938 217.541 346.415 211.581 352.857C195.38 370.445 185.146 386.297 181.16 399.971C177.497 412.532 178.991 423.62 185.601 432.934C193.015 443.38 207.079 451.63 227.412 457.46C253.456 464.93 283.85 466.515 304.757 466.531C332.652 466.555 362.213 463.917 383.836 459.476C402.877 455.588 427.236 449.264 446.766 434.764C465.156 421.13 479.113 400.414 487.304 375.061C489.871 367.115 491.873 358.706 493.264 349.924C498.222 319.042 489.118 286.896 467.623 259.409C457.445 246.348 444.613 234.794 430.514 225.995C415.821 216.824 400.232 210.762 384.183 207.978C362.496 204.254 343.332 206.681 325.588 215.393ZM429.97 226.87C443.967 235.604 456.708 247.075 466.812 260.044C488.128 287.305 497.162 319.169 492.246 349.767C486.456 386.304 470.085 416.2 446.147 433.947C435.976 441.5 419.674 451.116 383.624 458.478C362.067 462.905 332.58 465.534 304.753 465.511C283.909 465.497 253.622 463.918 227.689 456.48C207.59 450.715 193.709 442.597 186.433 432.346C180.016 423.302 178.57 412.509 182.142 400.263C186.08 386.739 196.243 371.028 212.335 353.556C218.326 347.082 224.347 339.573 230.745 330.597C232.258 328.477 233.839 326.207 235.44 323.847C241.054 315.601 246.577 306.876 251.918 298.441C261.89 282.687 272.201 266.397 283.663 252.329C297.496 235.307 311.358 223.526 326.044 216.316C343.587 207.7 362.548 205.304 384.009 208.994C399.922 211.756 415.386 217.771 429.97 226.87Z" fill="white" fill-opacity="0.5"/>
<path d="M330.527 228.213C316.792 234.926 303.887 245.887 291.083 261.72C280.583 274.656 271.217 289.609 262.166 304.067C257.209 311.981 252.086 320.164 246.855 327.884C245.386 330.054 243.936 332.144 242.543 334.101C236.703 342.317 231.165 349.207 225.617 355.175C210.666 371.359 201.185 385.926 197.44 398.451C193.986 409.999 195.278 420.226 201.28 428.845C207.995 438.488 220.898 446.158 239.632 451.639C263.776 458.707 291.889 460.197 311.22 460.207C336.976 460.222 364.359 457.752 384.466 453.606C402.007 450.017 424.453 444.183 442.46 430.845C459.51 418.239 472.449 399.077 480.022 375.634C482.358 368.402 484.183 360.765 485.461 352.79C490.114 324.281 481.691 294.569 461.743 269.128C452.345 257.083 440.492 246.405 427.461 238.256C413.862 229.751 399.449 224.112 384.619 221.499C364.594 218.015 346.9 220.213 330.527 228.213ZM426.92 239.118C439.85 247.206 451.612 257.797 460.939 269.751C480.706 294.965 489.058 324.396 484.45 352.621C479.07 386.197 463.94 413.686 441.852 430.018C432.48 436.96 417.461 445.803 384.263 452.601C364.213 456.736 336.912 459.197 311.222 459.181C291.957 459.175 263.947 457.69 239.92 450.656C221.417 445.242 208.701 437.704 202.123 428.256C196.311 419.906 195.066 409.975 198.423 398.739C202.124 386.362 211.528 371.935 226.37 355.867C231.949 349.869 237.513 342.941 243.379 334.69C244.777 332.727 246.229 330.631 247.703 328.456C252.943 320.72 258.072 312.529 263.034 304.61C272.074 290.176 281.421 275.25 291.881 262.362C304.589 246.645 317.378 235.776 330.978 229.13C347.147 221.226 364.637 219.058 384.442 222.5C399.143 225.093 413.432 230.685 426.92 239.118Z" fill="white" fill-opacity="0.5"/>
<path d="M335.489 241.031C322.834 247.178 311.004 257.231 299.322 271.758C289.814 283.522 281.405 297.123 273.274 310.275C268.707 317.661 263.985 325.303 259.134 332.5C257.794 334.493 256.468 336.411 255.197 338.203C249.958 345.591 244.88 351.901 239.672 357.495C225.952 372.232 217.213 385.503 213.715 396.909C210.481 407.453 211.577 416.819 216.978 424.757C222.997 433.6 234.735 440.689 251.869 445.823C274.103 452.485 299.942 453.883 317.702 453.884C341.319 453.886 366.523 451.588 385.115 447.735C401.161 444.441 421.69 439.1 438.17 426.923C453.883 415.345 465.8 397.736 472.756 376.203C474.86 369.693 476.51 362.818 477.674 355.649C482.019 329.516 474.281 302.239 455.883 278.838C447.267 267.806 436.389 258.009 424.429 250.508C411.929 242.667 398.689 237.453 385.08 235.012C366.708 231.775 350.486 233.746 335.489 241.031ZM423.885 251.369C435.746 258.81 446.533 268.523 455.078 279.464C473.299 302.636 480.963 329.631 476.668 355.478C471.703 386.095 457.814 411.172 437.567 426.093C428.995 432.426 415.262 440.496 384.91 446.725C366.38 450.565 341.257 452.858 317.704 452.855C300.013 452.855 274.282 451.463 252.167 444.836C235.262 439.769 223.709 432.819 217.826 424.173C212.535 416.397 211.511 407.574 214.697 397.201C218.152 385.929 226.811 372.807 240.426 358.183C245.663 352.556 250.769 346.212 256.034 338.786C257.311 336.988 258.64 335.064 259.986 333.062C264.846 325.846 269.573 318.199 274.147 310.804C282.262 297.679 290.654 284.109 300.122 272.393C311.708 257.985 323.421 248.025 335.937 241.944C350.734 234.755 366.754 232.812 384.905 236.007C398.383 238.434 411.499 243.6 423.885 251.369Z" fill="white" fill-opacity="0.5"/>
<path d="M340.45 253.827C328.887 259.412 318.127 268.562 307.557 281.801C299.033 292.408 291.568 304.664 284.351 316.522C280.183 323.37 275.871 330.455 271.411 337.119C270.202 338.927 269.003 340.675 267.848 342.307C263.213 348.868 258.462 354.756 253.728 359.814C229.554 385.636 222.668 405.541 232.677 420.668C238 428.713 248.574 435.218 264.113 440.004C284.432 446.264 307.995 447.568 324.188 447.562C345.674 447.557 368.692 445.428 385.769 441.864C400.316 438.868 418.932 434.018 433.889 423.003C448.233 412.474 459.133 396.381 465.501 376.668C467.361 370.911 468.835 364.84 469.895 358.513C473.872 334.766 466.815 309.919 450.025 288.551C442.146 278.521 432.244 269.604 421.39 262.753C409.97 255.548 397.908 250.762 385.545 248.526C368.838 245.503 354.091 247.24 340.45 253.827ZM420.841 263.62C431.597 270.406 441.41 279.245 449.218 289.183C465.825 310.32 472.807 334.884 468.881 358.343C467.828 364.622 466.368 370.641 464.522 376.356C458.221 395.861 447.446 411.779 433.28 422.178C425.507 427.904 413.058 435.198 385.558 440.863C368.546 444.412 345.605 446.537 324.185 446.538C294.977 446.549 275.561 442.461 264.415 439.026C249.111 434.311 238.722 427.945 233.535 420.102C228.863 413.039 228.025 404.861 231.068 395.443C234.347 385.29 242.135 373.699 254.479 360.512C259.245 355.422 264.025 349.496 268.687 342.897C269.848 341.256 271.05 339.503 272.265 337.685C276.734 331.003 281.053 323.909 285.227 317.052C292.427 305.225 299.873 292.995 308.356 282.44C318.83 269.32 329.473 260.262 340.896 254.746C354.333 248.255 368.877 246.549 385.361 249.528C397.593 251.747 409.531 256.486 420.841 263.62Z" fill="white" fill-opacity="0.5"/>
<path d="M345.421 266.648C334.973 271.658 325.28 279.896 315.786 291.837C308.262 301.3 301.738 312.212 295.426 322.766C291.655 329.075 287.754 335.596 283.686 341.727C282.605 343.362 281.53 344.934 280.496 346.401C276.39 352.239 272.108 357.529 267.779 362.122C256.388 374.207 249.362 384.584 246.301 393.845C243.437 402.489 244.123 409.918 248.368 416.567C253.062 423.917 262.216 429.676 276.344 434.176C286.497 437.409 304.162 441.254 330.662 441.229C350.008 441.215 370.848 439.254 386.407 435.982C399.455 433.284 416.155 428.923 429.59 419.067C442.592 409.569 452.472 395.023 458.228 377.207C459.853 372.175 461.153 366.876 462.095 361.361C465.755 339.99 459.38 317.578 444.148 298.248C437.043 289.233 428.121 281.192 418.338 274.992C408.011 268.445 397.127 264.086 385.985 262.026C370.962 259.253 357.688 260.763 345.421 266.648ZM417.799 275.862C427.483 282.001 436.317 289.96 443.35 298.887C458.398 317.985 464.7 340.112 461.091 361.191C456.849 385.961 445.449 406.223 428.987 418.244C422.013 423.361 410.85 429.886 386.199 434.982C370.701 438.242 349.94 440.192 330.662 440.207C304.291 440.234 286.737 436.41 276.655 433.2C262.956 428.839 253.727 423.056 249.231 416.017C245.202 409.71 244.535 402.646 247.192 394.42C247.219 394.336 247.247 394.251 247.274 394.167C250.287 385.051 257.237 374.797 268.524 362.826C272.886 358.197 277.198 352.87 281.332 346.99C282.371 345.518 283.449 343.936 284.536 342.292C288.615 336.14 292.522 329.61 296.3 323.292C302.595 312.768 309.103 301.883 316.585 292.475C325.98 280.66 335.554 272.516 345.858 267.572C357.924 261.786 370.992 260.304 385.805 263.04C396.822 265.075 407.584 269.387 417.799 275.862Z" fill="white" fill-opacity="0.5"/>
<path d="M324.02 301.866C317.458 310.194 311.857 319.794 306.435 329.078C303.083 334.823 299.616 340.76 295.961 346.331C295.011 347.782 294.063 349.184 293.146 350.491C289.56 355.615 285.753 360.305 281.834 364.428C262.266 385.007 256.622 400.269 264.063 412.464C268.059 419.007 276.078 424.203 288.581 428.346C297.665 431.356 313.465 434.935 337.146 434.897C354.21 434.873 372.871 433.081 387.062 430.102C398.661 427.668 413.491 423.765 425.305 415.139C436.969 406.673 445.834 393.672 450.976 377.753C452.368 373.445 453.489 368.921 454.315 364.219C457.66 345.226 451.97 325.244 438.292 307.956C431.962 299.955 424.015 292.792 415.31 287.243C406.078 281.358 396.369 277.417 386.453 275.538C361.708 270.841 341.866 279.209 324.02 301.866ZM437.493 308.588C450.984 325.643 456.602 345.336 453.308 364.037C449.468 385.855 439.309 403.708 424.705 414.307C418.579 418.778 408.744 424.499 386.852 429.094C372.727 432.062 354.144 433.844 337.148 433.868C313.603 433.907 297.917 430.354 288.907 427.371C276.643 423.309 268.803 418.258 264.94 411.926C257.774 400.189 263.381 385.321 282.579 365.131C286.534 360.974 290.373 356.244 293.989 351.08C294.913 349.763 295.867 348.353 296.82 346.892C300.49 341.297 303.962 335.347 307.323 329.595C312.724 320.339 318.312 310.771 324.827 302.5C342.41 280.178 361.934 271.93 386.266 276.54C405.326 280.153 424.478 292.135 437.493 308.588Z" fill="white" fill-opacity="0.5"/>
<path d="M332.259 311.889C326.647 319.099 321.951 327.405 317.411 335.439C314.492 340.599 311.476 345.936 308.245 350.93C307.424 352.204 306.601 353.431 305.804 354.576C302.729 358.997 299.396 363.083 295.895 366.723C278.794 384.512 273.667 397.738 279.762 408.346C283.062 414.091 289.951 418.72 300.823 422.505C312.143 426.445 327.347 428.591 343.634 428.55C358.548 428.517 375.027 426.895 387.717 424.206C398.452 421.93 410.803 418.605 421.025 411.194C431.352 403.76 439.201 392.303 443.73 378.281C444.887 374.701 445.83 370.948 446.538 367.058C449.567 350.442 444.562 332.896 432.439 317.646C420.828 303.034 403.811 292.338 386.92 289.031C365.091 284.756 347.723 292.018 332.259 311.889ZM431.637 318.284C443.573 333.301 448.506 350.559 445.531 366.876C444.83 370.725 443.902 374.43 442.758 377.971C438.297 391.781 430.577 403.061 420.428 410.366C410.359 417.668 398.139 420.954 387.509 423.206C374.885 425.88 358.487 427.496 343.638 427.528C327.462 427.569 312.377 425.441 301.163 421.539C290.536 417.84 283.826 413.358 280.654 407.838C276.981 401.449 274.643 390.307 296.637 367.437C300.177 363.755 303.545 359.626 306.647 355.164C307.451 354.01 308.28 352.775 309.108 351.489C312.356 346.467 315.379 341.119 318.305 335.947C322.827 327.947 327.506 319.671 333.07 312.521C348.27 292.991 365.321 285.845 386.727 290.038C403.383 293.298 420.171 303.856 431.637 318.284Z" fill="white" fill-opacity="0.5"/>
<path d="M360.319 305.047C353.148 308.345 346.669 313.862 340.507 321.909C335.827 328.022 332.018 335.057 328.337 341.865C325.871 346.422 323.324 351.131 320.537 355.526C319.848 356.617 319.152 357.669 318.472 358.655C315.905 362.379 313.046 365.865 309.968 369.018C295.12 384.23 290.65 395.088 295.474 404.224C298.087 409.172 303.845 413.239 313.075 416.662C322.86 420.29 336.023 422.257 350.136 422.206C362.904 422.165 377.201 420.71 388.387 418.314C396.968 416.472 407.946 413.553 416.756 407.251C425.758 400.809 432.597 390.888 436.509 378.78C437.428 375.934 438.184 372.971 438.771 369.899C441.489 355.666 437.163 340.549 426.597 327.333C416.537 314.752 401.885 305.476 387.402 302.52C377.338 300.467 368.481 301.294 360.319 305.047ZM425.791 327.974C430.915 334.379 434.556 341.178 436.611 348.177C438.725 355.372 439.111 362.618 437.76 369.709C434.731 385.582 427.058 398.617 416.157 406.418C411.611 409.671 404.32 413.849 388.168 417.314C377.05 419.699 362.832 421.144 350.129 421.184C336.135 421.234 323.098 419.287 313.425 415.702C304.44 412.373 298.862 408.461 296.374 403.747C294.375 399.962 294.09 395.834 295.604 391.149C297.561 385.09 302.53 378.106 310.698 369.734C313.815 366.54 316.713 363.009 319.313 359.239C320.001 358.241 320.704 357.177 321.401 356.074C324.208 351.65 326.765 346.922 329.238 342.354C332.9 335.583 336.689 328.584 341.32 322.534C354.137 305.794 368.712 299.757 387.191 303.528C401.447 306.433 415.876 315.575 425.791 327.974Z" fill="white" fill-opacity="0.5"/>
<path d="M348.765 331.918C344.992 336.956 342.054 342.752 339.214 348.357C337.225 352.282 335.168 356.339 332.837 360.11C332.278 361.02 331.711 361.899 331.146 362.724C329.075 365.769 326.687 368.653 324.05 371.296C311.509 383.874 307.659 392.482 311.185 400.079C313.117 404.241 317.742 407.748 325.327 410.801C333.56 414.113 344.681 415.905 356.644 415.845C367.272 415.798 379.391 414.511 389.062 412.404C396.584 410.765 405.252 408.399 412.492 403.293C420.168 397.877 425.999 389.503 429.294 379.302C429.977 377.187 430.553 374.994 431.011 372.731C433.454 360.705 429.909 348.355 420.759 337.011C412.251 326.463 399.964 318.608 387.89 316.002C372.126 312.603 359.329 317.808 348.765 331.918ZM419.959 337.653C428.909 348.753 432.383 360.811 430.004 372.528C427.382 385.443 420.953 396.071 411.9 402.46C404.809 407.463 396.264 409.79 388.842 411.407C379.237 413.499 367.2 414.777 356.64 414.824C344.806 414.883 333.824 413.119 325.712 409.852C318.381 406.903 313.934 403.565 312.117 399.648C308.802 392.507 312.588 384.244 324.778 372.019C327.459 369.329 329.889 366.394 331.997 363.301C332.569 362.463 333.148 361.57 333.711 360.647C336.061 356.839 338.131 352.764 340.129 348.821C342.951 343.253 345.872 337.499 349.589 332.532C354.543 325.916 359.823 321.412 365.733 318.765C372.319 315.815 379.494 315.238 387.675 317.002C399.524 319.56 411.593 327.28 419.959 337.653Z" fill="white" fill-opacity="0.5"/>
<path d="M357.044 341.915C354.154 345.907 352.057 350.5 350.031 354.94C348.543 358.202 347.002 361.571 345.16 364.686C344.73 365.419 344.287 366.123 343.844 366.783C342.233 369.194 340.375 371.414 338.159 373.564C327.821 383.596 324.671 389.862 326.921 395.913C328.184 399.31 331.677 402.257 337.601 404.931C344.255 407.935 353.338 409.549 363.177 409.48C371.675 409.427 381.613 408.307 389.762 406.491C395.689 405.17 402.523 403.284 408.249 399.332C414.607 394.942 419.436 388.114 422.112 379.83C422.559 378.446 422.948 377.021 423.27 375.558C425.401 365.949 422.521 355.963 414.941 346.676C407.988 338.159 398.064 331.728 388.399 329.473C375.531 326.471 365.275 330.542 357.044 341.915ZM414.148 347.321C421.523 356.355 424.331 366.041 422.27 375.332C420.062 385.288 414.874 393.507 407.664 398.487C402.086 402.339 395.368 404.187 389.537 405.489C381.456 407.292 371.598 408.401 363.167 408.455C353.472 408.523 344.541 406.94 338.018 403.997C332.357 401.443 329.04 398.682 327.876 395.554C325.792 389.955 328.877 383.995 338.869 374.299C341.137 372.097 343.04 369.828 344.693 367.355C345.147 366.68 345.6 365.958 346.039 365.21C347.909 362.051 349.459 358.655 350.961 355.37C352.97 350.974 355.044 346.431 357.872 342.519C365.836 331.516 375.744 327.577 388.166 330.471C397.62 332.671 407.335 338.97 414.148 347.321Z" fill="white" fill-opacity="0.5"/>
<path d="M365.363 351.903C363.316 354.897 362.025 358.337 360.778 361.665C359.822 364.213 358.836 366.843 357.52 369.249C357.206 369.822 356.9 370.336 356.581 370.825C355.44 372.591 354.042 374.221 352.309 375.807C344.888 382.608 341.555 386.719 342.688 391.696C343.293 394.356 345.652 396.758 349.898 399.03C354.936 401.726 361.987 403.168 369.747 403.089C378.96 403.001 387.329 401.284 390.501 400.551C394.832 399.55 399.827 398.146 404.04 395.345C409.103 391.98 412.938 386.714 414.987 380.373C415.199 379.716 415.394 379.047 415.568 378.364C417.401 371.179 415.185 363.556 409.165 356.316C404.999 351.307 397.502 345.161 388.959 342.921C379.137 340.351 371.197 343.372 365.363 351.903ZM408.382 356.974C414.269 364.049 416.352 371.162 414.58 378.113C412.794 385.107 408.852 390.923 403.475 394.496C399.4 397.205 394.512 398.575 390.27 399.554C387.133 400.281 378.85 401.978 369.737 402.066C362.144 402.146 355.27 400.747 350.382 398.131C346.467 396.034 344.216 393.796 343.689 391.474C343.385 390.138 343.44 388.867 343.86 387.568C344.854 384.491 347.891 381.253 353.004 376.566C354.799 374.918 356.25 373.226 357.44 371.386C357.769 370.879 358.09 370.341 358.419 369.744C359.773 367.275 360.77 364.609 361.736 362.029C362.962 358.758 364.23 355.376 366.208 352.484C371.772 344.347 379.339 341.468 388.701 343.918C397.012 346.09 404.317 352.087 408.382 356.974Z" fill="white" fill-opacity="0.5"/>
<path d="M373.768 361.892C372.526 363.926 372.019 366.263 371.529 368.523C371.14 370.317 370.737 372.174 369.967 373.824C369.791 374.204 369.609 374.544 369.41 374.871C368.7 376.037 367.8 377.045 366.572 378.037C365.81 378.652 365.108 379.203 364.426 379.737C360.96 382.448 358.67 384.238 358.564 387.411C358.498 389.324 359.818 391.347 362.27 393.108C366.576 396.192 372.342 396.76 376.417 396.695C382.434 396.604 388.351 395.348 391.342 394.606C394.061 393.931 397.207 393.021 399.924 391.362C403.536 389.156 406.237 385.738 407.951 381.208C408.019 381.032 408.079 380.858 408.137 380.679C409.591 376.177 408.026 371.226 403.484 365.952C400.523 362.512 395.324 358.192 389.626 356.373C382.79 354.19 377.304 356.099 373.768 361.892ZM402.709 366.616C407.169 371.792 408.61 376.57 406.994 380.841C405.36 385.153 402.801 388.399 399.391 390.483C396.794 392.069 393.742 392.953 391.099 393.606C388.15 394.336 382.319 395.573 376.402 395.664C372.478 395.727 366.944 395.188 362.868 392.268C360.701 390.714 359.536 388.999 359.588 387.441C359.677 384.743 361.705 383.163 365.058 380.536C365.744 380.001 366.45 379.447 367.218 378.826C368.539 377.757 369.511 376.669 370.284 375.397C370.503 375.041 370.703 374.668 370.896 374.249C371.713 372.497 372.127 370.582 372.53 368.735C373.025 366.459 373.491 364.306 374.641 362.421C377.95 357 382.888 355.294 389.316 357.342C394.812 359.1 399.839 363.285 402.709 366.616Z" fill="white" fill-opacity="0.5"/>
<path d="M382.437 371.993C381.938 373.162 382.207 374.483 382.469 375.759C382.676 376.773 382.873 377.73 382.679 378.529C382.639 378.699 382.582 378.853 382.51 378.998C381.825 380.352 380.54 380.586 379.054 380.856C377.567 381.129 375.879 381.434 374.814 383.052C374.017 384.266 374.031 385.953 374.856 387.152C376.402 389.399 379.267 390.479 383.374 390.36C385.982 390.284 389.049 389.732 392.483 388.717C396.831 387.431 399.406 385.981 400.588 384.153C400.811 383.809 400.98 383.451 401.099 383.084C401.78 380.975 400.768 378.478 398.073 375.634C397.461 374.987 394.222 371.674 390.621 369.904C388.46 368.844 386.625 368.581 385.163 369.12C383.977 369.57 383.06 370.533 382.437 371.993ZM390.172 370.828C392.845 372.14 395.699 374.619 397.335 376.343C400.169 379.332 400.954 381.709 399.73 383.599C398.704 385.187 396.24 386.54 392.198 387.735C388.846 388.726 385.87 389.264 383.35 389.336C379.612 389.446 377.039 388.514 375.704 386.572C375.245 385.904 375.139 384.99 375.389 384.214C375.458 384.003 375.552 383.8 375.672 383.616C376.496 382.365 377.831 382.122 379.241 381.863C380.774 381.584 382.516 381.267 383.427 379.459C383.536 379.243 383.621 379.012 383.679 378.766C383.922 377.746 383.694 376.632 383.476 375.553C383.235 374.378 383.008 373.268 383.381 372.391C383.889 371.199 384.609 370.423 385.526 370.084C386.708 369.645 388.274 369.896 390.172 370.828Z" fill="white" fill-opacity="0.5"/>
<circle cx="207.242" cy="188.798" r="10.4793" stroke="#FFDD29" stroke-width="4"/>
<circle cx="464.317" cy="421.912" r="17.4652" stroke="#FFDD29" stroke-width="7"/>
<path d="M177.924 448.07L148.486 460.426" stroke="white" stroke-width="7" stroke-linecap="round"/>
<path d="M169.383 468.967L157.028 439.529" stroke="white" stroke-width="7" stroke-linecap="round"/>
<path d="M480.059 242.375L465.15 248.633" stroke="white" stroke-width="4" stroke-linecap="round"/>
<path d="M475.733 252.958L469.476 238.049" stroke="white" stroke-width="4" stroke-linecap="round"/>
</svg>
