<svg width="10" height="10" viewBox="0 0 10 10" fill="none" xmlns="http://www.w3.org/2000/svg">
<path d="M4.84802 9.03645C4.24802 9.03645 3.69202 8.92845 3.18002 8.71245C2.66802 8.49645 2.22002 8.19645 1.83602 7.81245C1.45202 7.42045 1.15202 6.96845 0.936023 6.45645C0.728023 5.94445 0.624023 5.39245 0.624023 4.80045C0.624023 4.20845 0.732023 3.65645 0.948023 3.14445C1.16402 2.63245 1.46402 2.18445 1.84802 1.80045C2.23202 1.40845 2.68002 1.10445 3.19202 0.888453C3.71202 0.672453 4.27202 0.564453 4.87202 0.564453C5.47202 0.564453 6.02802 0.672453 6.54002 0.888453C7.06002 1.09645 7.50802 1.39245 7.88402 1.77645C8.26802 2.16045 8.56402 2.60845 8.77202 3.12045C8.98802 3.62445 9.09602 4.17645 9.09602 4.77645C9.09602 5.37645 8.98802 5.93645 8.77202 6.45645C8.55602 6.96845 8.25202 7.42045 7.86002 7.81245C7.47602 8.19645 7.02802 8.49645 6.51602 8.71245C6.00402 8.92845 5.44802 9.03645 4.84802 9.03645ZM4.83602 8.59245C5.38002 8.59245 5.88002 8.49645 6.33602 8.30445C6.79202 8.10445 7.19202 7.83245 7.53602 7.48845C7.88802 7.14445 8.16002 6.74045 8.35202 6.27645C8.54402 5.80445 8.64002 5.30445 8.64002 4.77645C8.64002 4.24045 8.54402 3.74445 8.35202 3.28845C8.16802 2.83245 7.90402 2.43245 7.56002 2.08845C7.22402 1.74445 6.82402 1.48045 6.36002 1.29645C5.90402 1.10445 5.40802 1.00845 4.87202 1.00845C4.32802 1.00845 3.82402 1.10445 3.36002 1.29645C2.89602 1.48845 2.49202 1.76045 2.14802 2.11245C1.81202 2.45645 1.54802 2.85645 1.35602 3.31245C1.16402 3.76845 1.06802 4.26445 1.06802 4.80045C1.06802 5.32845 1.16402 5.82445 1.35602 6.28845C1.54802 6.74445 1.81202 7.14845 2.14802 7.50045C2.49202 7.84445 2.89202 8.11245 3.34802 8.30445C3.81202 8.49645 4.30802 8.59245 4.83602 8.59245ZM4.95602 7.29645C4.47602 7.29645 4.04802 7.19245 3.67202 6.98445C3.29602 6.76845 3.00002 6.47245 2.78402 6.09645C2.56802 5.72045 2.46002 5.28845 2.46002 4.80045C2.46002 4.31245 2.56802 3.88045 2.78402 3.50445C3.00002 3.12845 3.29602 2.83645 3.67202 2.62845C4.04802 2.41245 4.47602 2.30445 4.95602 2.30445C5.36402 2.30445 5.73202 2.38845 6.06002 2.55645C6.39602 2.71645 6.66402 2.94045 6.86402 3.22845L6.34802 3.61245C6.18002 3.38045 5.97602 3.20845 5.73602 3.09645C5.49602 2.98445 5.23202 2.92845 4.94402 2.92845C4.60002 2.92845 4.29202 3.00845 4.02002 3.16845C3.75602 3.32045 3.54402 3.53645 3.38402 3.81645C3.22402 4.09645 3.14402 4.42445 3.14402 4.80045C3.14402 5.17645 3.22402 5.50445 3.38402 5.78445C3.54402 6.06445 3.75602 6.28445 4.02002 6.44445C4.29202 6.59645 4.60002 6.67245 4.94402 6.67245C5.23202 6.67245 5.49602 6.61645 5.73602 6.50445C5.97602 6.39245 6.18002 6.22045 6.34802 5.98845L6.86402 6.36045C6.66402 6.65645 6.39602 6.88845 6.06002 7.05645C5.73202 7.21645 5.36402 7.29645 4.95602 7.29645Z" fill="white" fill-opacity="0.8"/>
</svg>
