<svg width="99" height="92" viewBox="0 0 99 92" fill="none" xmlns="http://www.w3.org/2000/svg">
<path fill-rule="evenodd" clip-rule="evenodd" d="M88.737 65.8898C86.4077 65.8898 84.3095 65.8898 82.2076 65.8898C72.3682 65.8898 62.5177 65.8852 52.6801 65.8971C51.6553 65.8971 50.6121 65.9586 49.59 66.044C47.0344 66.2643 44.7657 65.4143 42.8297 63.8777C42.2073 63.3821 41.9332 62.2448 41.8094 61.3535C41.4684 58.8944 41.9818 56.6024 43.8389 54.7997C44.2688 54.3784 44.8179 54.0856 45.5705 53.5523C45.5705 55.4211 45.5329 56.9733 45.5797 58.5218C45.6567 61.0368 47.7861 62.7726 50.2235 62.3604C51.9119 62.0759 53.2686 60.3502 53.3199 58.3152C53.3713 56.1536 53.4089 53.9892 53.3584 51.8404C53.3392 51.0629 53.6096 50.9069 54.32 50.7609C59.8567 49.6457 65.3374 50.1671 70.7512 51.398C73.1785 51.9542 75.3006 53.2484 76.6041 55.5937C76.781 55.9204 77.4575 56.1123 77.9011 56.115C82.9336 56.1426 87.9725 56.2426 93.0004 56.0994C96.0538 56.0076 98.2712 58.3878 98.3289 61.1167C98.5278 69.7532 98.8001 78.386 98.999 87.0134C99.0586 89.668 96.7788 91.9499 94.1865 91.9994C91.7216 92.0398 89.342 89.7983 89.265 87.2401C89.0633 80.678 88.9056 74.1132 88.7397 67.5438C88.726 67.0601 88.737 66.5745 88.737 65.8898Z" fill="white"/>
<path fill-rule="evenodd" clip-rule="evenodd" d="M16.6249 26.1171C15.8238 25.1965 15.0795 24.3832 14.38 23.5305C12.5871 21.3339 10.4842 20.9549 8.54733 22.5098C6.63334 24.0491 6.44817 26.5146 8.21 28.5927C9.57399 30.1944 11.048 31.7053 12.4881 33.2446C12.698 33.4778 12.9455 33.7476 13.2232 33.8238C15.1482 34.3406 14.9805 35.6293 14.8127 37.2366C14.4919 40.3574 14.1985 43.5223 14.425 46.6322C14.5909 48.9049 15.734 51.0895 16.2207 53.3613C17.7983 60.6981 18.3519 68.1111 17.46 75.5965C16.9439 79.8978 16.1382 84.1036 14.5588 88.1543C13.8126 90.0544 11.7245 92.395 9.16883 91.8838C5.98343 91.2541 4.03827 88.4499 5.22901 85.3887C6.879 81.1388 7.46933 76.7118 7.94691 72.2499C8.42541 67.7944 8.0835 63.3618 7.253 58.9568C6.96242 57.4157 6.76992 55.8488 6.39867 54.3315C6.28684 53.8625 5.81476 53.2769 5.37385 53.119C2.3617 52.0542 1.06554 49.6236 0.59896 46.7882C-0.380951 40.776 -0.234285 34.7784 1.60545 28.9057C2.25353 26.8239 2.82003 24.6806 3.76144 22.7328C4.82752 20.5207 6.66817 19.0704 9.15324 18.4371C14.3782 17.1052 17.6314 20.7768 16.6249 26.1171Z" fill="white"/>
<path fill-rule="evenodd" clip-rule="evenodd" d="M61.8503 24.777C62.0804 31.2216 56.0918 37.0429 49.4039 37.0383C43.1376 37.0337 36.9052 31.6172 37.0106 24.4365C37.1096 17.902 42.6792 12.1926 49.6009 12.2679C56.6363 12.3404 62.194 18.4077 61.8503 24.777ZM49.3489 29.3702C52.1768 29.4023 54.253 27.4288 54.2777 24.6669C54.2887 22.0729 52.0163 19.6818 49.5001 19.6478C47.0031 19.6212 44.475 22.0013 44.5941 24.5365C44.738 27.4224 46.07 29.3225 49.3489 29.3702Z" fill="white"/>
<path fill-rule="evenodd" clip-rule="evenodd" d="M85.4781 69.2117C85.4781 70.8979 85.4781 72.4565 85.4781 74.0922C64.3674 74.0922 43.3355 74.0922 22.2056 74.0922C22.2056 72.4639 22.2056 70.875 22.2056 69.2117C43.2879 69.2117 64.3307 69.2117 85.4781 69.2117Z" fill="white"/>
<path fill-rule="evenodd" clip-rule="evenodd" d="M22.1826 57.793C21.9021 53.9259 26.3177 48.6479 31.3712 48.9949C35.9921 49.3152 39.9915 53.2852 39.9072 58.0362C39.8283 62.6909 35.7602 66.6727 31.12 66.6865C26.5963 66.7058 22.0359 62.7515 22.1826 57.793Z" fill="white"/>
<path fill-rule="evenodd" clip-rule="evenodd" d="M19.174 0.00111122C22.9278 -0.0677313 27.6568 3.06506 27.7668 8.58531C27.8667 13.9358 23.9306 17.5009 19.2758 17.6909C14.5532 17.8846 10.408 13.9275 10.3457 9.11402C10.2751 3.78286 14.1196 0.252616 19.174 0.00111122Z" fill="white"/>
<path fill-rule="evenodd" clip-rule="evenodd" d="M31.0769 38.763C26.7393 38.8144 22.6189 37.879 18.6827 36.0845C14.5642 34.2074 11.2248 31.3518 8.6132 27.6756C7.25013 25.76 7.61038 24.0444 9.42445 22.9374C10.5052 22.2802 11.6309 22.1655 12.6832 23.0081C13.1681 23.3973 13.6466 23.8315 14.0151 24.3271C18.9577 30.925 25.8107 32.8269 33.6161 32.2312C35.8032 32.0687 38.0371 31.2793 39.2737 34.0036C39.3351 34.1422 39.5863 34.1845 39.7054 34.3139C40.1546 34.827 41.063 35.6403 40.9558 35.8229C40.4938 36.5811 39.8301 37.4182 39.0464 37.7129C37.7731 38.1939 36.3468 38.3325 34.9709 38.5096C33.6802 38.6666 32.374 38.6849 31.0769 38.763Z" fill="white"/>
<path fill-rule="evenodd" clip-rule="evenodd" d="M46.3925 38.4153C48.4376 38.4153 50.3406 38.4153 52.3948 38.4153C52.4214 38.6998 52.4737 39.0835 52.4737 39.4663C52.481 45.6171 52.4883 51.7625 52.4718 57.9197C52.4682 59.2094 52.2775 60.4761 51.0254 61.1865C49.0554 62.311 46.8417 61.1902 46.4668 58.9276C46.3925 58.4439 46.3962 57.9519 46.3944 57.4608C46.3907 51.5284 46.3925 45.5969 46.3925 39.6719C46.3925 39.2322 46.3925 38.7916 46.3925 38.4153Z" fill="white"/>
<path fill-rule="evenodd" clip-rule="evenodd" d="M49.4075 28.3779C47.4101 28.3587 45.8563 26.723 45.8463 24.6127C45.8334 22.6282 47.5173 20.9099 49.4827 20.8998C51.3948 20.8915 53.1191 22.7016 53.0531 24.677C52.9981 26.7744 51.3948 28.3972 49.4075 28.3779Z" fill="white"/>
</svg>
