<svg width="66" height="92" viewBox="0 0 66 92" fill="none" xmlns="http://www.w3.org/2000/svg">
<path fill-rule="evenodd" clip-rule="evenodd" d="M35.8883 47.739C33.8365 62.6175 31.828 77.181 29.7943 91.9204C29.3822 91.9393 28.8703 91.9865 28.3559 91.9882C24.4179 91.9968 20.4807 92.0028 16.5427 91.9986C12.9387 91.9934 11.2911 90.0837 11.7969 86.5871C13.4402 75.1931 15.0652 63.7957 16.6963 52.3991C16.875 51.1514 16.9834 49.8891 17.2602 48.6629C17.3391 48.316 17.8987 47.8308 18.2466 47.824C22.4805 47.751 26.7161 47.7536 30.9508 47.739C32.4769 47.7347 34.0013 47.739 35.8883 47.739Z" fill="white"/>
<path fill-rule="evenodd" clip-rule="evenodd" d="M34.4987 40.441C28.7266 40.441 23.1193 40.441 17.3715 40.441C17.0461 37.5008 16.7243 34.6062 16.4024 31.7107C16.2853 31.7012 16.1681 31.6926 16.0519 31.6841C14.7557 35.6504 13.4595 39.6158 12.1121 43.7401C9.07641 43.0506 6.10056 42.3756 2.87744 41.6449C3.45266 39.3015 3.9897 37.0311 4.56925 34.7693C6.59248 26.8771 8.65302 18.9934 10.6389 11.0909C10.9357 9.91278 11.5065 9.28164 12.6951 9.04636C14.6108 8.66767 16.5091 8.20656 18.4152 7.77979C19.2472 9.46712 20.0792 11.1562 20.9121 12.8435C25.2518 21.6305 29.5942 30.4175 33.933 39.2071C34.1126 39.5694 34.2714 39.943 34.4987 40.441Z" fill="white"/>
<path fill-rule="evenodd" clip-rule="evenodd" d="M62.7701 41.6715C60.0867 42.2854 57.3442 42.8728 54.6269 43.552C53.5745 43.8156 53.4938 43.151 53.2795 42.4898C52.1135 38.8979 50.9388 35.3103 49.4118 31.7115C49.0899 34.5804 48.7689 37.4501 48.4358 40.4161C45.7731 40.4161 43.1885 40.4161 40.4426 40.4161C39.3833 36.6361 38.2814 32.8149 37.2767 28.968C37.1553 28.5026 37.4893 27.8671 37.7331 27.3691C40.5667 21.6021 43.4254 15.848 46.2694 10.087C46.6398 9.33741 46.9643 8.56458 47.3938 7.61487C49.6209 8.1962 51.874 8.74748 54.0977 9.40267C54.4517 9.50657 54.8212 10.0347 54.9245 10.4348C57.5915 20.7022 60.2246 30.979 62.8578 41.255C62.8803 41.3443 62.8179 41.4559 62.7701 41.6715Z" fill="white"/>
<path fill-rule="evenodd" clip-rule="evenodd" d="M38.4688 91.99C39.3303 77.1965 40.1814 62.5789 41.0446 47.7691C43.2535 47.7691 45.4078 47.715 47.5542 47.8232C47.903 47.8412 48.4235 48.5462 48.5094 48.9996C49.1983 52.6568 49.8221 56.3251 50.4277 59.9986C51.8748 68.7555 53.2708 77.5228 54.7526 86.2771C55.3747 89.9386 53.7722 91.9711 50.0182 91.9874C46.2016 92.0038 42.3833 91.99 38.4688 91.99Z" fill="white"/>
<path fill-rule="evenodd" clip-rule="evenodd" d="M37.435 40.4051C37.1955 39.962 36.9405 39.5283 36.7175 39.0792C31.7392 29.0257 26.787 18.9592 21.7593 8.9297C21.0574 7.53003 21.0218 6.40858 21.984 5.15575C22.9149 3.94328 23.6619 2.59255 24.579 1.36977C24.9798 0.83395 25.6045 0.462995 26.1276 0.017334C26.4512 0.58493 26.9015 1.11646 27.0733 1.72527C28.6627 7.3394 30.2045 12.9647 31.7549 18.5891C33.6549 25.4776 35.5514 32.3686 37.448 39.2596C37.5417 39.6022 37.5946 39.9568 37.6666 40.3055C37.5903 40.3381 37.5122 40.3716 37.435 40.4051Z" fill="white"/>
<path fill-rule="evenodd" clip-rule="evenodd" d="M36.1356 24.842C35.4459 22.3964 34.855 20.3914 34.3327 18.3683C34.2373 17.9956 34.3692 17.5414 34.4759 17.1464C35.8979 11.9221 37.3181 6.69608 38.7922 1.48468C38.9466 0.942844 39.4351 0.493748 39.7682 0C40.2228 0.392422 40.7738 0.714432 41.1139 1.18757C42.1931 2.68771 43.2733 4.19815 44.1782 5.80218C44.5157 6.40155 44.6788 7.40794 44.4038 7.9867C41.7784 13.4986 39.0438 18.9582 36.1356 24.842Z" fill="white"/>
<path fill-rule="evenodd" clip-rule="evenodd" d="M38.3218 50.103C38.0642 54.9151 37.8238 59.7289 37.5445 64.5393C37.1714 70.952 36.7654 77.3622 36.3819 83.7732C36.2492 85.98 36.1077 88.1886 36.0418 90.3971C36.0002 91.7977 35.1499 92.0252 34.0142 91.9952C32.8143 91.9625 32.4569 91.3142 32.607 90.2237C33.2898 85.2209 33.9483 80.2156 34.6398 75.2155C35.6557 67.8693 36.6916 60.5267 37.7232 53.184C37.869 52.1536 38.0312 51.1257 38.1865 50.0961C38.2316 50.0987 38.2767 50.1004 38.3218 50.103Z" fill="white"/>
<path fill-rule="evenodd" clip-rule="evenodd" d="M1.91338 43.9951C2.39576 44.0586 2.61006 44.0663 2.81481 44.117C5.4818 44.7584 8.15226 45.3836 10.8054 46.0748C11.2201 46.183 11.902 46.663 11.8664 46.8657C11.5567 48.6122 11.1602 50.3494 10.6466 52.047C10.5754 52.2797 9.6931 52.4532 9.24369 52.3656C6.69817 51.871 4.16479 51.3094 1.63749 50.7281C0.553859 50.4782 -0.226107 49.914 0.059332 48.6286C0.342168 47.3525 0.580756 46.0602 0.978982 44.8177C1.10131 44.4313 1.67913 44.1891 1.91338 43.9951Z" fill="white"/>
<path fill-rule="evenodd" clip-rule="evenodd" d="M65.9999 49.2821C65.5088 49.7106 65.01 50.4868 64.355 50.6551C61.6984 51.3326 58.9993 51.8539 56.3019 52.3639C55.3424 52.546 54.6735 52.0977 54.4687 51.0836C54.2622 50.0626 54.0401 49.0425 53.8033 48.025C53.5681 47.016 53.982 46.3522 54.945 46.1092C57.501 45.4661 60.0725 44.8779 62.6406 44.2742C64.0027 43.9539 64.9015 44.2802 65.1271 45.8362C65.2772 46.864 65.6312 47.8601 65.9999 49.2821Z" fill="white"/>
<path fill-rule="evenodd" clip-rule="evenodd" d="M45.5472 43.1648C45.594 43.8543 45.6348 44.4537 45.6851 45.2076C37.1202 45.2076 28.715 45.2076 20.1865 45.2076C20.1865 44.5593 20.1865 43.9668 20.1865 43.1648C28.6161 43.1648 36.9649 43.1648 45.5472 43.1648Z" fill="white"/>
</svg>
