<svg width="108" height="92" viewBox="0 0 108 92" fill="none" xmlns="http://www.w3.org/2000/svg">
<path fill-rule="evenodd" clip-rule="evenodd" d="M53.6875 13.1964C55.6675 11.3826 57.5405 9.53865 59.5465 7.85415C65.2895 3.03025 71.8225 0.0903961 79.4175 0.0151951C93.2375 -0.120167 104.102 7.4992 107.227 20.7356C108.609 26.6003 108.01 32.4128 106.445 38.1712C106.25 38.8901 105.82 38.9041 105.246 38.9031C96.6425 38.8951 88.0375 38.8991 79.4335 38.8991C74.2495 38.8991 69.0655 38.8771 63.8815 38.9172C63.0475 38.9242 62.6735 38.6565 62.4395 37.8744C61.9945 36.3914 61.4615 34.9355 60.9405 33.4766C60.4175 32.0087 59.7555 31.4532 58.6075 31.4572C57.3915 31.4592 56.6465 32.0448 56.1515 33.4947C54.3735 38.7096 52.6155 43.9326 50.8485 49.1525C50.7805 49.3511 50.6865 49.5406 50.5355 49.9005C50.3615 49.5025 50.2245 49.2398 50.1295 48.962C46.5965 38.6765 43.0665 28.386 39.5375 18.0965C39.5145 18.0293 39.4965 17.9582 39.4725 17.891C38.9325 16.3358 37.9465 15.4424 36.7835 15.4555C35.6545 15.4675 34.7135 16.3248 34.1885 17.8549C31.7075 25.0762 29.2335 32.3005 26.7555 39.5228C26.6305 39.8898 26.4905 40.2518 26.2745 40.8483C25.4095 38.3527 24.6445 36.0856 23.8295 33.8366C23.6245 33.2741 23.3465 32.6845 22.9435 32.2614C21.7235 30.984 20.0055 31.2838 19.2005 32.854C18.2965 34.6167 17.3805 36.3744 16.5135 38.1562C16.2365 38.7247 15.8745 38.9172 15.2575 38.9152C11.0465 38.8931 6.83348 38.9172 2.62148 38.8731C2.27848 38.8701 1.71348 38.5241 1.63048 38.2313C-0.712522 29.867 -0.866523 21.629 3.41048 13.7639C7.51948 6.20675 14.0495 2.02156 22.3775 0.526562C32.9945 -1.37652 42.0175 1.97042 49.8515 9.08644C50.5975 9.76325 51.3025 10.4902 51.9885 11.2302C52.6495 11.9421 53.2605 12.7001 53.6875 13.1964Z" fill="white"/>
<path fill-rule="evenodd" clip-rule="evenodd" d="M20.9133 40.2317C21.8923 43.0672 22.7843 45.6481 23.6753 48.2311C24.2093 49.7792 25.1023 50.5783 26.2883 50.5753C27.4583 50.5723 28.3713 49.7631 28.9023 48.215C31.3783 40.9917 33.8453 33.7644 36.3193 26.5381C36.4573 26.136 36.6143 25.7409 36.8303 25.1634C38.1113 28.8823 39.3353 32.4198 40.5493 35.9603C42.9683 43.0131 45.3833 50.068 47.8003 57.1208C47.8703 57.3254 47.9393 57.5299 48.0173 57.7304C48.5263 59.0399 49.4273 59.7529 50.5483 59.7368C51.6953 59.7218 52.6003 59.0249 53.0583 57.7064C54.0483 54.8457 55.0043 51.9761 55.9763 49.1104C56.7933 46.6929 57.6143 44.2755 58.4913 41.6866C58.6953 41.9964 58.8363 42.1719 58.9363 42.3684C59.4783 43.4222 60.3563 43.8042 61.5063 43.8022C71.6583 43.7882 81.8143 43.7932 91.9663 43.7932C95.6033 43.7932 99.2393 43.7942 102.875 43.7992C103.19 43.7992 103.504 43.8343 103.999 43.8634C102.264 47.1612 100.005 49.8785 97.5353 52.5135C97.2893 52.3922 97.0613 52.3059 96.8583 52.1806C82.4153 43.2628 63.9883 51.214 60.5383 67.8806C59.7043 71.9144 59.9533 75.9231 61.2823 79.8355C61.5353 80.5775 61.3933 81.0227 60.8793 81.6263C58.7553 84.118 56.7233 86.6939 54.6613 89.2417C54.4413 89.5134 54.2453 89.8032 53.9863 90.1531C53.1543 89 52.3813 87.9232 51.6033 86.8513C47.8023 81.6123 42.9093 77.5615 37.6883 73.8395C31.7063 69.5741 25.7213 65.3047 19.8623 60.8738C14.9663 57.173 10.4193 53.0559 6.71731 48.1017C5.75431 46.8143 4.9083 45.4356 3.8623 43.8824C4.5013 43.8413 4.8693 43.7982 5.2373 43.7982C9.0173 43.7932 12.8003 43.725 16.5783 43.8253C18.3723 43.8734 19.5533 43.2698 20.1883 41.5833C20.3393 41.1862 20.5903 40.8263 20.9133 40.2317Z" fill="white"/>
<path fill-rule="evenodd" clip-rule="evenodd" d="M84.0928 91.9991C73.5138 92.1033 64.7048 83.359 64.6188 72.6684C64.5348 61.9989 73.1968 53.1051 83.7808 52.9978C94.4898 52.8875 103.384 61.4985 103.491 72.0848C103.608 83.1775 95.1178 91.8928 84.0928 91.9991ZM68.4218 72.4999C68.3888 81.1451 75.4028 88.223 84.0358 88.252C92.6208 88.2821 99.7338 81.1982 99.7768 72.5792C99.8178 64.0544 92.7748 56.8371 84.3838 56.803C75.4468 56.7679 68.4548 63.6443 68.4218 72.4999Z" fill="white"/>
<path fill-rule="evenodd" clip-rule="evenodd" d="M86.9295 69.6694C89.3255 69.6694 91.6205 69.6654 93.9185 69.6714C95.4285 69.6744 95.7005 69.9471 95.7005 71.4181C95.7005 72.2102 95.7055 73.0053 95.6955 73.7994C95.6805 75.0347 95.4145 75.3225 94.1565 75.3355C92.1065 75.3566 90.0525 75.3847 88.0035 75.3285C87.0985 75.3044 86.8275 75.6103 86.8535 76.5016C86.9115 78.5581 86.8805 80.6166 86.8665 82.6731C86.8585 83.9084 86.6245 84.1381 85.4115 84.1621C84.5135 84.1802 83.6125 84.1832 82.7125 84.1681C81.5665 84.1491 81.2615 83.8372 81.2565 82.6561C81.2445 80.2777 81.2535 77.8994 81.2535 75.3435C79.7595 75.3435 78.3355 75.3415 76.9095 75.3435C75.9375 75.3456 74.9675 75.3686 73.9935 75.3536C72.7885 75.3325 72.4355 74.9846 72.4165 73.8125C72.4015 72.9461 72.4015 72.0798 72.4165 71.2135C72.4355 70.0514 72.8055 69.6794 73.9895 69.6734C76.3605 69.6614 78.7295 69.6694 81.2525 69.6694C81.2525 68.5163 81.2525 67.4464 81.2525 66.3786C81.2525 65.043 81.2425 63.7074 81.2545 62.3729C81.2655 61.1897 81.6055 60.8508 82.8135 60.8257C83.6775 60.8097 84.5425 60.8047 85.4065 60.8287C86.5425 60.8588 86.8675 61.1897 86.8745 62.3458C86.8875 64.3672 86.8715 66.3876 86.8755 68.409C86.8745 68.795 86.9075 69.1801 86.9295 69.6694Z" fill="white"/>
</svg>
