<svg width="87" height="92" viewBox="0 0 87 92" fill="none" xmlns="http://www.w3.org/2000/svg">
<path d="M7.23798 62.0935C7.54869 62.1441 7.85857 62.1864 8.16929 62.2212C13.4614 62.8267 18.7103 61.4506 23.0413 58.2986C26.4632 55.8119 29.0086 52.4367 30.4495 48.5548C36.614 52.6192 38.615 60.8708 34.8658 67.3399C33.8673 69.0594 34.4531 71.2633 36.1699 72.2611C36.6124 72.5191 37.0863 72.6692 37.5661 72.7248C38.9432 72.8824 40.3467 72.2313 41.0867 70.9539C46.5204 61.5808 43.9684 49.7368 35.5477 43.354C35.5543 43.3126 35.5634 43.2727 35.5676 43.2321L37.2628 28.4086C40.1587 31.0132 43.8184 32.6787 47.7127 33.1258C50.2655 33.4195 52.9211 33.188 55.5253 32.3544C57.1468 31.8368 58.0417 30.0999 57.5246 28.4766C57.0068 26.8525 55.2726 25.9567 53.6494 26.4759C47.035 28.5911 39.9383 24.9248 37.8254 18.3057C37.5636 17.482 36.9861 16.8474 36.2702 16.4883C35.6579 16.0022 34.9254 15.6795 34.1143 15.5866L32.2027 15.3677C31.8216 15.3254 31.4454 15.3386 31.08 15.3959C21.1521 14.7174 12.3212 21.9951 11.1778 31.9919C10.9839 33.6841 12.1986 35.2136 13.8897 35.4085C15.5817 35.6035 17.1095 34.3874 17.3034 32.6945C17.9199 27.3054 21.8639 23.0925 26.8444 21.8782L24.5459 41.9696C24.5111 42.279 24.5053 42.5835 24.5203 42.8846C24.4813 43.0206 24.449 43.1574 24.4258 43.3001C23.8383 47.012 21.8465 50.2702 18.8147 52.4757C15.783 54.6805 12.0735 55.5738 8.364 54.9824C6.40278 54.673 4.56004 56.0109 4.24933 57.9743C3.93696 59.9393 5.27593 61.7816 7.23798 62.0935Z" fill="white"/>
<path d="M34.9399 14.242C38.8685 14.242 42.0532 11.0538 42.0532 7.12101C42.0532 3.18819 38.8685 0 34.9399 0C31.0114 0 27.8267 3.18819 27.8267 7.12101C27.8267 11.0538 31.0114 14.242 34.9399 14.242Z" fill="white"/>
<path d="M76.824 75.564H6.05269C2.71522 75.564 0 78.2805 0 81.6233C0 84.9628 2.71522 87.6809 6.05269 87.6809H76.824C80.1607 87.6809 82.8776 84.9636 82.8776 81.6233C82.8767 78.2814 80.1607 75.564 76.824 75.564ZM6.05269 85.7027C3.80479 85.7027 1.97696 83.8728 1.97696 81.6233C1.97696 79.3721 3.80479 77.5415 6.05269 77.5415H8.91788C7.0188 77.928 5.58787 79.6077 5.58787 81.6233C5.58787 83.6389 7.0188 85.3178 8.91788 85.7027H6.05269ZM10.5767 85.7027C12.4766 85.3178 13.9059 83.6389 13.9059 81.6233C13.9059 79.6077 12.4766 77.928 10.5767 77.5415H72.2992C70.401 77.928 68.9692 79.6077 68.9692 81.6233C68.9692 83.6389 70.401 85.3178 72.3009 85.7027H10.5767ZM76.824 85.7027H73.9605C75.8588 85.3178 77.2905 83.6389 77.2905 81.6233C77.2905 79.6077 75.8588 77.928 73.9605 77.5415H76.824C79.0719 77.5415 80.8989 79.3721 80.8989 81.6233C80.8989 83.8728 79.0719 85.7027 76.824 85.7027Z" fill="white"/>
<path d="M79.8006 88.8953H3.07598C2.21924 88.8953 1.5249 89.5896 1.5249 90.4464C1.5249 91.3041 2.21924 92 3.07598 92H79.7998C80.6557 92 81.3517 91.3041 81.3517 90.4464C81.3525 89.5896 80.6565 88.8953 79.8006 88.8953Z" fill="white"/>
<path d="M67.9619 29.7283L77.9843 43.0231L60.3433 72.7472H79.7144L87 44.4738L86.7 44.3287L86.8616 44.2051L75.1481 28.6699L81.9598 22.6496L79.9762 20.4017L73.3394 26.2686L72.7536 25.4922L81.978 17.336L78.9653 13.9211L62.157 28.7802L65.1688 32.1968L67.9619 29.7283Z" fill="white"/>
</svg>
