<svg width="91" height="92" viewBox="0 0 91 92" fill="none" xmlns="http://www.w3.org/2000/svg">
<path fill-rule="evenodd" clip-rule="evenodd" d="M41.9138 92C39.4455 91.0589 36.8511 90.3633 34.5309 89.1348C26.1475 84.6988 21.3151 74.4075 22.9284 65.4824C24.8507 54.854 32.7144 47.315 43.0336 46.1035C55.194 44.6773 65.8882 52.9693 67.9925 65.7151C69.9063 77.3112 62.3686 88.429 51.2926 91.23C50.5299 91.4242 49.7952 91.7408 49.0495 92C46.6701 92 44.2932 92 41.9138 92ZM45.5155 48.92C34.5758 48.9054 25.5051 58.0999 25.5609 69.1501C25.6151 79.9839 34.5927 89.0458 45.3352 89.1108C56.3214 89.1758 65.3718 80.0874 65.3642 68.9953C65.3558 58.0033 56.39 48.9345 45.5155 48.92Z" fill="white"/>
<path fill-rule="evenodd" clip-rule="evenodd" d="M0 17.1878C2.02474 14.7239 4.04779 12.2599 6.296 9.52045C13.5172 22.0242 20.5945 34.2782 27.6151 46.4337C25.5158 48.7728 23.5376 50.9784 21.4325 53.3268C18.2955 48.0687 15.1754 42.8105 12.0274 37.5703C8.03041 30.9193 4.01139 24.2828 0.000846403 17.6404C-6.13913e-08 17.489 0 17.3375 0 17.1878Z" fill="white"/>
<path fill-rule="evenodd" clip-rule="evenodd" d="M73.8212 0.242981C72.2993 2.85581 70.9762 5.27529 69.4831 7.58183C69.1284 8.12938 68.2007 8.58881 67.5337 8.59137C52.8331 8.64784 38.1317 8.64784 23.4303 8.59137C22.7642 8.58881 21.8356 8.13024 21.4809 7.5844C19.9869 5.277 18.6639 2.85752 17.1411 0.242981C36.0892 0.242981 54.802 0.242981 73.8212 0.242981Z" fill="white"/>
<path fill-rule="evenodd" clip-rule="evenodd" d="M13.9847 0.0230713C21.972 13.8632 29.8119 27.4458 37.7314 41.1653C35.0752 42.3913 32.5706 43.548 29.8966 44.7834C26.9763 39.7519 24.0484 34.7256 21.1391 29.689C17.1378 22.7651 13.1908 15.8087 9.12095 8.92671C8.33374 7.59549 8.34983 6.71684 9.37405 5.59009C10.9205 3.88585 12.3223 2.04643 13.9847 0.0230713Z" fill="white"/>
<path fill-rule="evenodd" clip-rule="evenodd" d="M60.9079 44.715C58.4464 43.5797 55.9773 42.4384 53.2339 41.1713C61.0899 27.5553 68.9519 13.9291 76.9882 0C78.8073 2.2458 80.5552 4.33162 82.1991 6.50127C82.464 6.84948 82.4733 7.68706 82.2431 8.08574C75.1683 20.2969 68.0487 32.4816 60.9079 44.715Z" fill="white"/>
<path fill-rule="evenodd" clip-rule="evenodd" d="M84.6779 9.49316C86.921 12.266 88.9271 14.7445 91.0001 17.3068C83.8289 29.3426 76.6898 41.3271 69.5372 53.3329C67.4303 50.981 65.453 48.7772 63.3521 46.4347C70.3472 34.3159 77.4042 22.0919 84.6779 9.49316Z" fill="white"/>
<path fill-rule="evenodd" clip-rule="evenodd" d="M23.9194 11.7637C38.4312 11.7637 52.5663 11.7637 67.046 11.7637C65.4639 14.4784 64.0622 16.9962 62.5191 19.4234C62.2499 19.8461 61.3823 20.0625 60.7897 20.0651C50.5568 20.1027 40.3231 20.1078 30.0893 20.0531C29.4655 20.0505 28.5835 19.669 28.2669 19.1719C26.7923 16.8611 25.4727 14.4501 23.9194 11.7637Z" fill="white"/>
<path fill-rule="evenodd" clip-rule="evenodd" d="M62.4623 69.1031C62.4547 78.8529 55.0685 86.1952 45.2808 86.1772C35.7945 86.161 28.4962 78.6647 28.4844 68.9269C28.4725 59.219 35.9079 51.8357 45.6786 51.8528C55.1768 51.8691 62.4691 59.3645 62.4623 69.1031ZM43.3365 80.487C45.2004 80.487 46.6538 80.487 48.2214 80.487C48.2214 72.7717 48.2214 65.1813 48.2214 57.6132C44.9574 57.2171 45.0548 57.3103 43.179 59.3482C42.0922 60.5289 40.72 61.5187 39.3183 62.3067C36.5927 63.8364 36.5165 63.821 37.3359 67.3082C39.2819 66.3346 41.1788 65.3875 43.3365 64.3087C43.3365 69.7294 43.3365 75.0004 43.3365 80.487Z" fill="white"/>
</svg>
