<svg width="105" height="92" viewBox="0 0 105 92" fill="none" xmlns="http://www.w3.org/2000/svg">
<path d="M16.8051 22.9102C17.3029 22.9774 17.9536 23.0063 18.6576 23.0063C21.8611 23.0063 24.608 22.2287 26.4456 20.4933C27.8706 19.1463 28.644 17.1607 28.644 14.8278C28.644 12.4857 27.6175 10.5085 26.0874 9.30428C24.4871 8.02444 22.1086 7.39246 18.7664 7.39246C15.457 7.39246 13.1123 7.59969 11.4463 7.87881V31.434H16.8042V22.9102H16.8051ZM16.8051 11.6773C17.2026 11.5587 17.9358 11.4626 19.0411 11.4626C21.7514 11.4626 23.2833 12.7769 23.2833 14.9725C23.2833 17.4071 21.503 18.8643 18.6211 18.8643C17.8336 18.8643 17.2711 18.8326 16.8042 18.7196V11.6773H16.8051Z" fill="white"/>
<path d="M6.67388 38.819H33.4089C36.7952 38.819 39.5431 36.0941 39.5431 32.7288V6.10888C39.5431 2.72771 36.7952 0 33.4089 0H6.67388C3.29508 0 0.555664 2.72771 0.555664 6.10888V32.7279C0.555664 36.0941 3.29414 38.819 6.67388 38.819ZM5.39792 6.46548C5.39792 5.55251 6.13668 4.82064 7.04794 4.82064H33.0499C33.9677 4.82064 34.6915 5.55251 34.6915 6.46548V32.3563C34.6915 33.2665 33.9686 34.018 33.0499 34.018H7.04701C6.13574 34.018 5.39698 33.2656 5.39698 32.3563V6.46548H5.39792Z" fill="white"/>
<path d="M25.3512 70.702C19.4327 70.702 14.6626 75.4573 14.6626 81.3515C14.6626 87.2288 19.4524 92 25.3512 92C31.2519 92 36.0538 87.2288 36.0538 81.3515C36.0538 75.4573 31.2528 70.702 25.3512 70.702ZM25.3512 84.5665C23.5718 84.5665 22.129 83.1205 22.129 81.3524C22.129 79.5825 23.5718 78.1384 25.3512 78.1384C27.1325 78.1384 28.5856 79.5825 28.5856 81.3524C28.5865 83.1205 27.1325 84.5665 25.3512 84.5665Z" fill="white"/>
<path d="M103.223 72.6176L101.479 58.4442C101.139 55.7351 98.7408 53.7365 95.9854 53.883L92.1529 54.0949L80.2511 43.4156C79.1092 42.3887 77.628 41.824 76.0783 41.824H51.9017C46.4875 41.824 41.2178 43.6723 36.9755 47.0479L23.496 57.8439L5.34476 62.3593C3.03848 62.9418 1.38658 65.0207 1.38658 67.4217V72.6176C0.615946 72.6176 0 73.2346 0 73.9992V80.8959C0 81.8724 0.795011 82.6687 1.78221 82.6687H12.017C11.9833 82.229 11.8886 81.8061 11.8886 81.3515C11.8886 73.9478 17.9196 67.9575 25.3504 67.9575C32.7848 67.9575 38.8037 73.9478 38.8037 81.3515C38.8037 81.8061 38.7024 82.229 38.6621 82.6687H67.0266C66.9769 82.229 66.8972 81.8061 66.8972 81.3515C66.8972 73.9478 72.9123 67.9575 80.3477 67.9575C87.784 67.9575 93.7982 73.9478 93.7982 81.3515C93.7982 81.8061 93.7166 82.229 93.6669 82.6687H103.221C104.201 82.6687 105 81.8715 105 80.8959V74.4034C105.02 73.4139 104.217 72.6176 103.223 72.6176ZM67.3369 55.1993L33.6052 56.9029L40.0656 51.7406C43.5794 48.9317 47.9322 47.3886 52.4314 47.3886H67.3369V55.1993ZM72.9488 54.923V47.4045H75.1482C75.8992 47.4045 76.6323 47.6827 77.2023 48.1858L84.0818 54.3526L72.9488 54.923Z" fill="white"/>
<path d="M80.3645 70.702C74.4469 70.702 69.6543 75.4573 69.6543 81.3515C69.6543 87.2288 74.4469 92 80.3645 92C86.268 92 91.0427 87.2288 91.0427 81.3515C91.0427 75.4573 86.2511 70.702 80.3645 70.702ZM80.3645 84.5665C78.5719 84.5665 77.1207 83.1205 77.1207 81.3524C77.1207 79.5825 78.5719 78.1384 80.3645 78.1384C82.127 78.1384 83.5764 79.5825 83.5764 81.3524C83.5764 83.1205 82.127 84.5665 80.3645 84.5665Z" fill="white"/>
</svg>
