<svg width="92" height="92" viewBox="0 0 92 92" fill="none" xmlns="http://www.w3.org/2000/svg">
<path fill-rule="evenodd" clip-rule="evenodd" d="M69.584 0.00203997C71.1806 0.45269 72.867 0.705543 74.3576 1.38866C77.9649 3.0424 79.8939 6.05218 80.7014 10.0652C80.3242 9.80828 80.0876 9.65126 79.8592 9.48609C75.4588 6.34581 69.586 6.72305 65.9217 10.4078C63.9702 12.3694 63.0791 14.8327 62.7406 17.5183C62.606 18.5929 62.5653 19.6838 62.5632 20.7687C62.551 29.5472 62.5428 38.3257 62.5775 47.1042C62.5795 47.8689 62.3226 48.1034 61.6497 48.3521C60.1428 48.9109 58.6868 49.6164 57.2125 50.2669C56.9331 50.3913 56.6579 50.5259 56.3867 50.6686C54.3638 51.7432 52.3512 51.731 50.3161 50.6727C49.2068 50.0936 48.0608 49.5858 46.9413 49.0251C43.8317 47.4733 40.7342 47.4998 37.6327 49.0475C36.4622 49.6307 35.2713 50.1731 34.1049 50.7624C32.2004 51.7229 30.3162 51.7025 28.4157 50.7481C27.2249 50.1486 26.0055 49.596 24.8105 49.0026C21.7253 47.4733 18.6503 47.5059 15.5773 49.0373C14.6311 49.5083 13.6707 49.9549 12.7306 50.4321C11.081 51.2742 9.36199 51.7473 7.35547 51.4455C7.35547 51.2029 7.35547 50.9133 7.35547 50.6217C7.35547 38.081 7.33712 25.5403 7.37994 12.9995C7.38606 11.3968 7.55123 9.75526 7.94071 8.20551C9.06427 3.75406 12.0557 1.21737 16.5133 0.340536C17.1393 0.218188 17.7673 0.112153 18.3934 0C35.463 0.00203914 52.5225 0.00203997 69.584 0.00203997Z" fill="white"/>
<path fill-rule="evenodd" clip-rule="evenodd" d="M91.9981 13.3461C91.5087 14.38 90.6829 14.7042 89.5614 14.7001C82.1491 14.6695 74.7368 14.6838 67.3245 14.6838C67.0492 14.6838 66.7739 14.6838 66.2295 14.6838C66.7332 13.0301 67.5957 12.2022 68.5256 11.7638C69.7715 11.1744 71.311 11.0134 72.7792 11.0134C79.3555 11.0113 81.2335 11.0052 87.8097 11.0052C88.395 11.0052 88.9843 11.046 89.5654 10.997C90.691 10.9053 91.5108 11.3131 92.0002 12.3449C91.9981 12.6773 91.9981 13.0117 91.9981 13.3461Z" fill="white"/>
<path fill-rule="evenodd" clip-rule="evenodd" d="M0 12.3429C0.489394 11.3111 1.30913 10.9236 2.43677 10.9909C3.42984 11.0521 4.43106 11.0031 5.47306 11.0031C5.47306 12.2328 5.47306 13.393 5.47306 14.6349C4.13946 14.6349 2.77119 14.7552 1.44575 14.5757C0.917614 14.5044 0.479199 13.7743 0 13.3461C0 13.0117 0 12.6773 0 12.3429Z" fill="white"/>
<path fill-rule="evenodd" clip-rule="evenodd" d="M66.2393 17.6835C71.1964 17.6835 76.0333 17.6835 80.9578 17.6835C80.9578 18.0199 80.9578 20.9135 80.9578 21.2132C80.9578 43.9843 80.9578 66.7534 80.9578 89.5245C80.9578 91.4209 80.3705 92 78.4517 92C59.2756 92 40.1015 92 20.9254 92C18.9617 92 18.3989 91.4331 18.3989 89.4613C18.3989 85.7256 18.3989 81.9919 18.3989 78.2562C18.3989 77.9585 18.3989 77.6608 18.3989 77.2795C18.8068 77.2795 19.133 77.2795 19.4593 77.2795C34.2023 77.2795 48.9453 77.2795 63.6903 77.2795C65.6663 77.2795 66.2372 76.7166 66.2372 74.7611C66.2372 56.9512 66.2372 39.1434 66.2372 21.3335C66.2393 21.0052 66.2393 18.077 66.2393 17.6835Z" fill="white"/>
<path fill-rule="evenodd" clip-rule="evenodd" d="M62.5284 62.9075C62.5284 66.5983 62.5284 70.0465 62.5284 73.6008C62.2042 73.6008 61.9085 73.6008 61.6128 73.6008C44.3331 73.6008 27.0534 73.6008 9.77372 73.6008C7.97724 73.6008 7.36141 72.987 7.35938 71.2007C7.35938 69.5857 7.35938 67.9727 7.35938 66.1701C8.33612 66.1701 9.27617 66.2476 10.2019 66.1538C12.239 65.9478 14.0763 65.0771 15.7912 64.0576C18.799 62.2652 21.7027 62.1958 24.6656 64.0698C25.2039 64.4103 25.8177 64.6244 26.3846 64.9222C29.7002 66.6656 32.9934 66.5983 36.2969 64.8691C37.4796 64.2492 38.701 63.7089 39.9102 63.144C41.5232 62.3916 43.1402 62.3977 44.7511 63.1563C45.9338 63.7129 47.1369 64.2329 48.2911 64.8447C51.6822 66.6432 55.0407 66.633 58.4338 64.8406C59.7286 64.1575 61.0806 63.5886 62.5284 62.9075Z" fill="white"/>
<path fill-rule="evenodd" clip-rule="evenodd" d="M62.5566 51.9491C62.5566 54.2859 62.5607 56.5086 62.5444 58.7313C62.5444 58.8801 62.4118 59.1126 62.2793 59.1697C60.0383 60.1444 57.7789 61.0742 55.546 62.0673C53.7883 62.8503 52.1264 62.5648 50.4767 61.7737C49.2471 61.1843 48.0135 60.6011 46.79 59.9996C43.7822 58.5273 40.7847 58.5579 37.7851 60.0241C36.684 60.5624 35.5604 61.0498 34.4837 61.6309C32.3488 62.779 30.2484 62.7953 28.1094 61.6472C27.0062 61.0579 25.8541 60.5604 24.7305 60.0098C21.6963 58.5192 18.6702 58.562 15.6482 60.0506C14.6001 60.5665 13.5356 61.0477 12.4957 61.582C10.9153 62.3915 9.25954 62.7484 7.42432 62.5037C7.42432 60.1219 7.42432 57.7137 7.42432 55.126C8.34805 55.126 9.29013 55.2035 10.2159 55.1097C12.2245 54.9099 14.0454 54.0596 15.7297 53.0441C18.7925 51.2007 21.7432 51.1579 24.755 53.0726C25.3382 53.4438 26.005 53.6823 26.6249 53.9984C29.8875 55.6562 33.1012 55.487 36.3149 53.8251C37.622 53.1481 38.9739 52.5506 40.3218 51.9572C41.6371 51.3781 42.9829 51.3761 44.2981 51.9531C45.648 52.5465 47.002 53.1358 48.3051 53.821C51.6717 55.5869 55.0077 55.6073 58.3743 53.8312C59.4306 53.2745 60.5318 52.7994 61.6186 52.2978C61.8898 52.1713 62.1794 52.0877 62.5566 51.9491Z" fill="white"/>
</svg>
