<svg width="38" height="33" viewBox="0 0 38 33" fill="none" xmlns="http://www.w3.org/2000/svg">
<path fill-rule="evenodd" clip-rule="evenodd" d="M12.6355 3.72719H3.67969V11.1408C3.36203 11.3191 2.98258 11.4232 2.5761 11.4244C1.46268 11.4244 0.562761 10.6513 0.562761 9.70001L0.560059 2.36244C0.560059 2.34274 0.56391 2.32344 0.567589 2.305C0.570075 2.29255 0.572482 2.28048 0.573571 2.26896C0.57222 2.25741 0.570193 2.24614 0.568166 2.23486C0.566139 2.22359 0.564112 2.21232 0.562761 2.20077C0.565464 1.29237 1.52484 0.561035 2.71393 0.561035H11.8496C13.0374 0.561035 13.9981 1.29237 13.9981 2.20077C13.9981 2.89274 13.4338 3.48653 12.6355 3.72719ZM33.3197 6.65275V3.72719H25.9238C25.1247 3.48645 24.5613 2.89274 24.5613 2.20087C24.5613 1.29246 25.5208 0.561113 26.7114 0.561113H35.8483C37.0376 0.561113 37.9957 1.29246 37.9998 2.20087L37.9876 2.26905C37.9882 2.27311 37.9888 2.27725 37.9895 2.28147C37.9903 2.28597 37.9911 2.29054 37.9919 2.29518C37.9957 2.31689 37.9998 2.33998 37.9998 2.36253V9.69908C37.9998 10.6504 37.1011 11.4235 35.9848 11.4235C34.878 11.4202 33.9685 10.6504 33.9685 9.69908V6.12484L33.3197 6.65275ZM25.9284 29.054H33.3197V26.1315L33.9676 26.6591V23.0847C33.9676 22.1301 34.8771 21.3603 35.9838 21.3581C37.0999 21.3581 37.9986 22.1301 37.9986 23.0847H37.9999V30.4182C37.9999 30.44 37.9961 30.4623 37.9924 30.4841L37.9924 30.4841L37.9895 30.5018L37.9877 30.5139L37.991 30.5321L37.9938 30.5475L37.9971 30.5652L37.9999 30.581C37.9958 31.4883 37.0378 32.2197 35.8473 32.2197H26.7112C25.5207 32.2197 24.5613 31.4872 24.5613 30.581C24.5613 29.8869 25.1269 29.2933 25.9284 29.054ZM3.67969 21.6407V29.054H12.6317C13.4327 29.2931 13.9994 29.8868 13.9994 30.5811C13.9994 31.4873 13.0387 32.2197 11.851 32.2197H2.71393C1.52484 32.2197 0.565464 31.4884 0.562761 30.5811C0.564187 30.5678 0.566367 30.5563 0.568504 30.545C0.570416 30.5349 0.572295 30.525 0.573571 30.514C0.572435 30.5011 0.569867 30.4878 0.567272 30.4743C0.563691 30.4557 0.560059 30.4369 0.560059 30.4184L0.562761 23.0843C0.562761 22.1298 1.46268 21.3578 2.5761 21.3578C2.98258 21.3586 3.36203 21.4624 3.67969 21.6407Z" fill="white"/>
</svg>
