<svg width="39" height="27" viewBox="0 0 39 27" fill="none" xmlns="http://www.w3.org/2000/svg">
<path d="M37.4729 10.5365L23.1935 0.885744C22.3123 0.290038 21.26 0.290038 20.3789 0.885744C19.4977 1.48118 18.9717 2.54805 18.9717 3.73906V10.9336C18.8289 10.7855 18.6719 10.6519 18.5013 10.5367L4.22185 0.88588C3.34063 0.290175 2.28831 0.290175 1.40721 0.88588C0.525986 1.48131 0 2.54819 0 3.73919V23.0412C0 24.2323 0.526219 25.2991 1.40721 25.8945C1.84799 26.1923 2.33115 26.3413 2.81465 26.3413C3.29792 26.3413 3.7813 26.1923 4.22185 25.8945L18.5012 16.2437C18.672 16.1284 18.8289 15.995 18.9716 15.8468V23.0413C18.9716 24.2325 19.4978 25.2992 20.3788 25.8946C20.8196 26.1925 21.3027 26.3414 21.7862 26.3414C22.2695 26.3414 22.7529 26.1925 23.1934 25.8946L37.4728 16.2438C38.3541 15.6484 38.88 14.5815 38.88 13.3903C38.8801 12.1991 38.3542 11.132 37.4729 10.5365Z" fill="white"/>
</svg>
