<svg width="24" height="29" viewBox="0 0 24 29" fill="none" xmlns="http://www.w3.org/2000/svg">
<path d="M6.37407 0H2.84193C1.27486 0 0 1.39989 0 3.12065V25.6598C0 27.3806 1.27486 28.7805 2.84193 28.7805H6.37407C7.94114 28.7805 9.216 27.3806 9.216 25.6598V3.12065C9.216 1.39989 7.94114 0 6.37407 0Z" fill="white"/>
<path d="M20.1983 0H16.6661C15.0991 0 13.8242 1.39989 13.8242 3.12065V25.6598C13.8242 27.3806 15.0991 28.7805 16.6661 28.7805H20.1983C21.7654 28.7805 23.0402 27.3806 23.0402 25.6598V3.12065C23.0402 1.39989 21.7654 0 20.1983 0Z" fill="white"/>
</svg>
