<svg width="36" height="29" viewBox="0 0 36 29" fill="none" xmlns="http://www.w3.org/2000/svg">
<path d="M6.45757 8.37701H0.839844V20.4782H6.45757L17.0776 28.0951C17.0776 28.0951 19.0293 29.6718 19.0293 28.0423C19.0293 26.4081 19.0293 2.06283 19.0293 0.576243C19.0293 -0.702993 17.3114 0.546956 17.3114 0.546956L6.45757 8.37701Z" fill="white"/>
<path d="M24.875 5.80955C24.3695 5.25814 23.5516 5.25814 23.0461 5.80955C22.5406 6.36335 22.5406 7.26118 23.0461 7.8066C24.7105 9.62983 25.5351 11.9961 25.5384 14.3803C25.534 16.7693 24.7094 19.15 23.0461 20.9672C22.5406 21.5174 22.5406 22.4188 23.0461 22.9714C23.2983 23.2471 23.6283 23.3838 23.9627 23.3838C24.2928 23.3838 24.6228 23.2483 24.875 22.9714C27.0427 20.5992 28.126 17.4838 28.1238 14.3803C28.126 11.2805 27.0394 8.1746 24.875 5.80955Z" fill="white"/>
<path d="M30.3743 2.18769C29.854 1.66921 29.0249 1.66921 28.5068 2.18769C27.9976 2.70617 27.9976 3.54044 28.5068 4.05892C31.3471 6.91223 32.7656 10.6312 32.7678 14.368C32.7656 18.1217 31.3527 21.8641 28.5068 24.7264C27.9953 25.2427 27.9976 26.0781 28.5068 26.5965C28.7653 26.853 29.1052 26.9818 29.4406 26.9818C29.7782 26.9818 30.1169 26.853 30.3743 26.5965C33.7239 23.2169 35.3998 18.788 35.3998 14.368C35.3998 9.96264 33.7128 5.54941 30.3743 2.18769Z" fill="white"/>
</svg>
