<svg width="17" height="17" viewBox="0 0 17 17" fill="none" xmlns="http://www.w3.org/2000/svg">
<path fill-rule="evenodd" clip-rule="evenodd" d="M4.21741 9.83065L0.300256 8.15147C-0.0975851 7.9802 -0.101038 7.3351 0.295674 7.15937L16.3718 0.0364807C16.7126 -0.114918 17.0643 0.228036 16.99 0.639099L14.1051 16.5778C14.0371 16.9541 13.6529 17.1247 13.3818 16.8984L9.44354 13.6144C9.20434 13.4149 8.87832 13.4256 8.64945 13.6398L6.46597 15.6843C6.2125 15.9223 5.83063 15.7897 5.73361 15.431L4.21741 9.83065ZM13.1448 3.5213L5.48923 8.93678C5.19581 9.14481 5.05765 9.55176 5.15245 9.93281L5.98017 13.2733C6.03894 13.51 6.3381 13.4857 6.36659 13.2411L6.58182 11.4093C6.62239 11.0644 6.76566 10.7466 6.98773 10.5092L13.3058 3.7638C13.4239 3.63792 13.2824 3.42424 13.1448 3.5213Z" fill="white"/>
<path d="M5.48945 8.93679L13.145 3.52131C13.2826 3.42425 13.4242 3.63793 13.306 3.76381L6.98795 10.5092C6.76588 10.7466 6.62261 11.0644 6.58204 11.4093L6.36681 13.2412C6.33832 13.4858 6.03916 13.51 5.98039 13.2733L5.15267 9.93282C5.05787 9.55176 5.19603 9.14482 5.48945 8.93679Z" fill="#E6E6E6"/>
</svg>
